<svg xmlns="http://www.w3.org/2000/svg" width="24" height="24" viewBox="0 0 24 24" fill="none">
  <!-- Background rectangle with rounded corners -->
  <rect x="0" y="0" width="24" height="24" rx="4" ry="4" fill="#7C5CFA"/>
  <!-- Wavy icon centered and scaled down -->
  <!-- Wavy icon properly centered -->
  <g transform="translate(5.5, 5.5)" fill="white" stroke="none">
<path
     d="M 3.4840478,3.2933558 C 2.5824109,4.1165129 2.3089093,5.4240879 2.1642272,6.5827049 2.0460553,7.7643475 2.0806924,9.0332027 2.0806924,9.0332027 L 0.03417699,9.9112315 c 0,0 0.0114236,-0.7176109 0.0350778,-1.2377094 C 0.08868733,7.4367536 0.08707314,6.2189889 0.32155446,4.9991516 0.84314635,2.7750327 2.6398827,0.92887459 4.8124795,0.29049908 6.929355,-0.36407108 9.3571878,0.139165 11.033517,1.596044 11.687803,2.1493432 12.289633,2.8156586 12.658334,3.5883195 12.234973,3.8431462 11.995407,3.953285 11.663601,4.1351334 11.344089,4.3102552 11.127774,4.3969651 10.704406,4.6592796 9.8050791,2.8677948 7.7676839,1.6579515 5.8272158,2.0845334 4.9544795,2.2523345 4.1259473,2.6740897 3.4840168,3.2933558 Z m 7.6854592,8.2586072 c 0.01192,-1.6052485 -0.01111,-3.2212334 0.01782,-4.8199971 0.620908,-0.3655044 1.959435,-1.0925884 1.959435,-1.0925884 0,0 0.01117,0.011386 0,1.5289353 0.0031,5.1260692 0.02974,5.1081482 0.0056,7.6715762 -0.526315,-0.216311 -0.521677,-0.231831 -0.80459,-0.36913 -1.967045,-1.026714 -3.9191483,-2.092471 -5.8957803,-3.094815 -2.1190859,1.105367 -6.43256665,3.462014 -6.43256665,3.462014 l -0.0112994,-1.459305 0.004967,-1.021485 c 0,0 4.41595155,-2.224682 6.44955255,-3.2071252 0.5771451,0.2487562 1.1272154,0.5902998 1.6964944,0.8672982 0.9988306,0.507847 1.9837104,1.053998 2.9893454,1.543149 0.0063,1.68e-4 0.0136,2.35e-4 0.01844,-0.005"
     />

  </g>
</svg>