<svg xmlns="http://www.w3.org/2000/svg" viewBox="0 0 253 24" fill="none">
  
  <!-- Background rectangle with no stroke -->
  <rect xmlns="http://www.w3.org/2000/svg" x="0" y="0" width="24" height="24" rx="4" ry="4" fill="rgb(89, 225, 199)"/>
  <!-- Icon (graduation-cap) centered using proper calculation -->
  <g xmlns="http://www.w3.org/2000/svg" transform="translate(12, 12) translate(-8, -8) scale(0.65)" stroke="white" stroke-width="2" stroke-linecap="round" stroke-linejoin="round">
    <path d="M21.42 10.922a1 1 0 0 0-.019-1.838L12.83 5.18a2 2 0 0 0-1.66 0L2.6 9.08a1 1 0 0 0 0 1.832l8.57 3.908a2 2 0 0 0 1.66 0z"/>
    <path d="M22 10v6"/>
    <path d="M6 12.5V16a6 3 0 0 0 12 0v-3.5"/>
  </g>

  
    <text x="30" y="1" alignment-baseline="hanging" font-family="Inter, sans-serif"
          font-size="20" font-weight="800" fill="rgb(46, 46, 46)" letter-spacing="-0.07em">
      Education
    </text>
</svg>