<svg xmlns="http://www.w3.org/2000/svg" viewBox="0 0 253 24" fill="none">
  
  <!-- Background rectangle with no stroke -->
  <rect xmlns="http://www.w3.org/2000/svg" x="0" y="0" width="24" height="24" rx="4" ry="4" fill="rgb(216, 79, 122)"/>
  <!-- Icon (wallet) centered using proper calculation -->
  <g xmlns="http://www.w3.org/2000/svg" transform="translate(12, 12) translate(-8, -8) scale(0.65)" stroke="white" stroke-width="2" stroke-linecap="round" stroke-linejoin="round">
    <path d="M19 7V4a1 1 0 0 0-1-1H5a2 2 0 0 0 0 4h15a1 1 0 0 1 1 1v4h-3a2 2 0 0 0 0 4h3a1 1 0 0 0 1-1v-2a1 1 0 0 0-1-1"/>
    <path d="M3 5v14a2 2 0 0 0 2 2h15a1 1 0 0 0 1-1v-4"/>
  </g>

  
    <text x="30" y="1" alignment-baseline="hanging" font-family="Inter, sans-serif"
          font-size="20" font-weight="800" fill="rgb(46, 46, 46)" letter-spacing="-0.07em">
      Finance and Accounting
    </text>
</svg>