<svg xmlns="http://www.w3.org/2000/svg" width="24" height="24" viewBox="0 0 24 24" fill="none">
  <!-- Background rectangle with no stroke -->
  <rect x="0" y="0" width="24" height="24" rx="4" ry="4" fill="rgb(223, 192, 85)"/>
  <!-- Icon (factory) centered using proper calculation -->
  <g transform="translate(12, 12) translate(-8, -8) scale(0.65)" stroke="white" stroke-width="2" stroke-linecap="round" stroke-linejoin="round">
    <path d="M2 20a2 2 0 0 0 2 2h16a2 2 0 0 0 2-2V8l-7 5V8l-7 5V4a2 2 0 0 0-2-2H4a2 2 0 0 0-2 2Z"></path>
    <path d="M17 18h1"></path>
    <path d="M12 18h1"></path>
    <path d="M7 18h1"></path>
  </g>
</svg>