<svg xmlns="http://www.w3.org/2000/svg" viewBox="0 0 253 24" fill="none">
  
  <!-- Background rectangle with no stroke -->
  <rect xmlns="http://www.w3.org/2000/svg" x="0" y="0" width="24" height="24" rx="4" ry="4" fill="rgb(223, 192, 85)"/>
  <!-- Icon (factory) centered using proper calculation -->
  <g xmlns="http://www.w3.org/2000/svg" transform="translate(12, 12) translate(-8, -8) scale(0.65)" stroke="white" stroke-width="2" stroke-linecap="round" stroke-linejoin="round">
    <path d="M2 20a2 2 0 0 0 2 2h16a2 2 0 0 0 2-2V8l-7 5V8l-7 5V4a2 2 0 0 0-2-2H4a2 2 0 0 0-2 2Z"/>
    <path d="M17 18h1"/>
    <path d="M12 18h1"/>
    <path d="M7 18h1"/>
  </g>

  
    <text x="30" y="1" alignment-baseline="hanging" font-family="Inter, sans-serif"
          font-size="20" font-weight="800" fill="rgb(46, 46, 46)" letter-spacing="-0.07em">
      Manufacturing
    </text>
</svg>