<svg xmlns="http://www.w3.org/2000/svg" width="24" height="24" viewBox="0 0 24 24" fill="none">
  <!-- Background rectangle with no stroke -->
  <rect x="0" y="0" width="24" height="24" rx="4" ry="4" fill="rgb(243, 95, 119)"/>
  <!-- Icon (clipboard-check) centered using proper calculation -->
  <g transform="translate(12, 12) translate(-8, -8) scale(0.65)" stroke="white" stroke-width="2" stroke-linecap="round" stroke-linejoin="round">
    <rect width="8" height="4" x="8" y="2" rx="1" ry="1" fill="none"></rect>
    <path d="M16 4h2a2 2 0 0 1 2 2v14a2 2 0 0 1-2 2H6a2 2 0 0 1-2-2V6a2 2 0 0 1 2-2h2"></path>
    <path d="m9 14 2 2 4-4"></path>
  </g>
</svg>