<svg xmlns="http://www.w3.org/2000/svg" viewBox="0 0 253 24" fill="none">
  
  <!-- Background rectangle with no stroke -->
  <rect xmlns="http://www.w3.org/2000/svg" x="0" y="0" width="24" height="24" rx="4" ry="4" fill="rgb(176, 79, 175)"/>
  <!-- Icon (handshake) centered using proper calculation -->
  <g xmlns="http://www.w3.org/2000/svg" transform="translate(12, 12) translate(-8, -8) scale(0.65)" stroke="white" stroke-width="2" stroke-linecap="round" stroke-linejoin="round">
    <path d="m11 17 2 2a1 1 0 1 0 3-3"/>
    <path d="m14 14 2.5 2.5a1 1 0 1 0 3-3l-3.88-3.88a3 3 0 0 0-4.24 0l-.88.88a1 1 0 1 1-3-3l2.81-2.81a5.79 5.79 0 0 1 7.06-.87l.47.28a2 2 0 0 0 1.42.25L21 4"/>
    <path d="m21 3 1 11h-2"/>
    <path d="M3 3 2 14l6.5 6.5a1 1 0 1 0 3-3"/>
    <path d="M3 4h8"/>
  </g>

  
    <text x="30" y="1" alignment-baseline="hanging" font-family="Inter, sans-serif"
          font-size="20" font-weight="800" fill="rgb(46, 46, 46)" letter-spacing="-0.07em">
      Sales
    </text>
</svg>