<svg xmlns="http://www.w3.org/2000/svg" viewBox="0 0 253 24" fill="none">
  
  <!-- Background rectangle with no stroke -->
  <rect xmlns="http://www.w3.org/2000/svg" x="0" y="0" width="24" height="24" rx="4" ry="4" fill="rgb(243, 118, 89)"/>
  <!-- Icon (package) centered using proper calculation -->
  <g xmlns="http://www.w3.org/2000/svg" transform="translate(12, 12) translate(-8, -8) scale(0.65)" stroke="white" stroke-width="2" stroke-linecap="round" stroke-linejoin="round">
    <path d="M11 21.73a2 2 0 0 0 2 0l7-4A2 2 0 0 0 21 16V8a2 2 0 0 0-1-1.73l-7-4a2 2 0 0 0-2 0l-7 4A2 2 0 0 0 3 8v8a2 2 0 0 0 1 1.73z"/>
    <path d="M12 22V12"/>
    <polyline points="3.29 7 12 12 20.71 7"/>
    <path d="m7.5 4.27 9 5.15"/>
  </g>

  
    <text x="30" y="1" alignment-baseline="hanging" font-family="Inter, sans-serif"
          font-size="20" font-weight="800" fill="rgb(46, 46, 46)" letter-spacing="-0.07em">
      Warehouse
    </text>
</svg>