<svg width="117" height="117" viewBox="0 0 117 117" fill="none" xmlns="http://www.w3.org/2000/svg">
<g clip-path="url(#clip0_1431_191)">
<path d="M93.4394 0H23.5606C10.5485 0 0 10.5485 0 23.5606V93.4394C0 106.452 10.5485 117 23.5606 117H93.4394C106.452 117 117 106.452 117 93.4394V23.5606C117 10.5485 106.452 0 93.4394 0Z" fill="#1FAE7B"/>
<path d="M39.9999 57H68.6432C76.5706 57 82.9999 63.2696 82.9999 71C82.9999 78.7304 76.5706 85 68.6432 85H39.9999V57Z" stroke="white" stroke-width="10.56" stroke-miterlimit="10"/>
<path d="M34.7617 32H66.4172C73.3651 32 78.9999 37.5978 78.9999 44.5C78.9999 51.4022 73.3651 57 66.4172 57H41.4707" stroke="white" stroke-width="10.56" stroke-miterlimit="10"/>
</g>
<defs>
<clipPath id="clip0_1431_191">
<rect width="117" height="117" fill="white"/>
</clipPath>
</defs>
</svg>
