<svg width="117" height="117" viewBox="0 0 117 117" fill="none" xmlns="http://www.w3.org/2000/svg">
<g clip-path="url(#clip0_1431_227)">
<path d="M93.4394 0H23.5606C10.5485 0 0 10.5485 0 23.5606V93.4394C0 106.452 10.5485 117 23.5606 117H93.4394C106.452 117 117 106.452 117 93.4394V23.5606C117 10.5485 106.452 0 93.4394 0Z" fill="#0A62BC"/>
<path fill-rule="evenodd" clip-rule="evenodd" d="M61.6435 30.9277L95.4851 63.859H95.4316C95.6695 64.0908 95.8885 64.3364 96.0879 64.5937L89.1322 75.8H73.1561L61.697 87.259C61.6085 87.344 61.5182 87.4266 61.4261 87.5068L59.0065 89.9263L49.813 84.1199V82.5543C49.8107 82.4807 49.8096 82.4068 49.8096 82.3327V39.5487H49.167H24V29H56.7707C58.6448 29 60.4119 29.6961 61.6435 30.9277ZM60.4119 44.4215V73.7652L63.7318 70.4453L68.8188 65.3048H81.8842L72.9419 56.5767L60.4119 44.4215ZM24.0536 64.0195L24 53.5778L34.4952 53.5243L34.5488 64.073H24.0536V64.0195Z" fill="white"/>
</g>
<defs>
<clipPath id="clip0_1431_227">
<rect width="117" height="117" fill="white"/>
</clipPath>
</defs>
</svg>
