<svg width="169" height="40" viewBox="0 0 169 40" fill="none" xmlns="http://www.w3.org/2000/svg">
<rect width="40" height="40" rx="8" fill="#0089FF"/>
<path fill-rule="evenodd" clip-rule="evenodd" d="M26.7545 13.5784H26.0836H17.3612H13.0001V10H26.7545V13.5784ZM17.3612 21.9653V26.8855H26.8663V30.4639H13V18.3869H17.3612H26.0835V21.9653H17.3612Z" fill="white"/>
<g clip-path="url(#clip0_3866_92)">
<path d="M68.5393 9.99219H76.739C81.5222 9.99219 84.2554 12.5642 84.2554 16.7017C84.2554 19.4974 82.8888 21.5102 80.6112 22.5167L85.0526 30.4562H80.1556L76.1696 23.1876H72.9809V30.4562H68.5393V9.99219ZM75.9418 19.721C78.4474 19.721 79.7001 18.7146 79.7001 16.7017C79.7001 14.6889 78.4474 13.5706 75.9418 13.5706H72.9809V19.721H75.9418Z" fill="#1D1D1D"/>
<path d="M87.3292 9.99219H95.5289C100.312 9.99219 103.045 12.8997 103.045 16.9254C103.045 21.0629 100.312 23.8586 95.4151 23.8586H91.6569V30.4562H87.2153V9.99219H87.3292ZM94.7317 20.392C97.2372 20.392 98.49 19.0501 98.49 16.9254C98.49 14.9125 97.2372 13.5706 94.7317 13.5706H91.7708V20.392H94.7317Z" fill="#1D1D1D"/>
<path d="M64.3246 13.5706H65.0079V9.99219H51V13.5706H55.4415H64.3246Z" fill="#1D1D1D"/>
<path d="M55.4415 26.8786V21.9583H64.3246V18.3799H55.4415H51V30.4571H65.1218V26.8786H55.4415Z" fill="#1D1D1D"/>
<path d="M123.867 9.80005V30.7926H120.033L110.9 17.58H110.746V30.7926H106.308V9.80005H110.203L119.264 23.0024H119.449V9.80005H123.867Z" fill="#1D1D1D"/>
<path d="M133.992 31.1001C132.372 31.1001 130.978 30.7721 129.809 30.1162C128.648 29.4533 127.752 28.5171 127.124 27.3075C126.496 26.0912 126.181 24.6528 126.181 22.9922C126.181 21.3726 126.496 19.9513 127.124 18.7281C127.752 17.5049 128.638 16.5516 129.779 15.8683C130.927 15.1849 132.273 14.8433 133.817 14.8433C134.856 14.8433 135.823 15.0107 136.718 15.3455C137.62 15.6735 138.406 16.169 139.075 16.8318C139.752 17.4946 140.278 18.3283 140.655 19.3329C141.03 20.3306 141.218 21.4991 141.218 22.8384V24.0377H127.923V21.3317H137.108C137.108 20.703 136.971 20.1461 136.698 19.6609C136.424 19.1757 136.045 18.7964 135.56 18.5231C135.082 18.2429 134.524 18.1028 133.889 18.1028C133.226 18.1028 132.639 18.2566 132.126 18.5641C131.62 18.8648 131.224 19.2713 130.937 19.7839C130.65 20.2895 130.503 20.8534 130.497 21.4752V24.048C130.497 24.827 130.64 25.5001 130.927 26.0673C131.221 26.6345 131.634 27.0718 132.167 27.3793C132.7 27.6868 133.332 27.8405 134.064 27.8405C134.549 27.8405 134.993 27.7722 135.396 27.6356C135.799 27.4989 136.145 27.2939 136.431 27.0206C136.718 26.7472 136.937 26.4124 137.087 26.016L141.126 26.2825C140.921 27.2529 140.5 28.1003 139.865 28.8246C139.237 29.5421 138.423 30.1025 137.425 30.5057C136.435 30.902 135.29 31.1001 133.992 31.1001Z" fill="#1D1D1D"/>
<path d="M146.799 15.0481L149.691 20.5525L152.653 15.0481H157.132L152.57 22.9203L157.255 30.7925H152.796L149.691 25.3496L146.635 30.7925H142.125L146.799 22.9203L142.29 15.0481H146.799Z" fill="#1D1D1D"/>
<path d="M167.465 15.048V18.3281H157.983V15.048H167.465ZM160.136 11.2759H164.503V25.9542C164.503 26.3574 164.564 26.6717 164.687 26.8972C164.81 27.1159 164.98 27.2697 165.199 27.3585C165.425 27.4473 165.685 27.4918 165.979 27.4918C166.183 27.4918 166.388 27.4747 166.594 27.4405C166.799 27.3995 166.956 27.3687 167.065 27.3483L167.752 30.5976C167.533 30.6659 167.225 30.7445 166.829 30.8333C166.433 30.929 165.951 30.9871 165.384 31.0076C164.332 31.0486 163.409 30.9085 162.616 30.5874C161.831 30.2662 161.219 29.7673 160.782 29.0908C160.344 28.4143 160.129 27.5601 160.136 26.5282V11.2759Z" fill="#1D1D1D"/>
</g>
<defs>
<clipPath id="clip0_3866_92">
<rect width="117.15" height="21.3" fill="white" transform="translate(51 9.80005)"/>
</clipPath>
</defs>
</svg>
