<svg width="117" height="117" viewBox="0 0 117 117" fill="none" xmlns="http://www.w3.org/2000/svg">
<path d="M93.4394 0H23.5606C10.5485 0 0 10.5485 0 23.5606V93.4394C0 106.452 10.5485 117 23.5606 117H93.4394C106.452 117 117 106.452 117 93.4394V23.5606C117 10.5485 106.452 0 93.4394 0Z" fill="#034D76"/>
<path d="M22.9829 40.8684L81.3539 40.8855C85.5978 40.8855 89.046 44.3337 89.046 48.5776V69.1076C89.046 73.3515 85.5978 76.7997 81.3539 76.7997L36.1921 76.7826C31.9482 76.7826 28.5 73.3344 28.5 69.0905V56.9829" stroke="#DEFDCC" stroke-width="10.56" stroke-miterlimit="10"/>
<path d="M58.7561 40.8854V22" stroke="#DEFDCC" stroke-width="10.56" stroke-linejoin="round"/>
<path d="M58.7561 95.6857V76.8003" stroke="#DEFDCC" stroke-width="10.56" stroke-linejoin="round"/>
</svg>
