<svg width="118" height="118" viewBox="0 0 118 118" fill="none" xmlns="http://www.w3.org/2000/svg">
<path d="M93.9278 0H23.1013C10.3428 0 0 10.3428 0 23.1013V93.9278C0 106.686 10.3428 117.029 23.1013 117.029H93.9278C106.686 117.029 117.029 106.686 117.029 93.9278V23.1013C117.029 10.3428 106.686 0 93.9278 0Z" fill="url(#paint0_radial_1431_143)"/>
<path d="M93.9278 0H23.1013C10.3428 0 0 10.3428 0 23.1013V93.9278C0 106.686 10.3428 117.029 23.1013 117.029H93.9278C106.686 117.029 117.029 106.686 117.029 93.9278V23.1013C117.029 10.3428 106.686 0 93.9278 0Z" fill="#0B3D3D" fill-opacity="0.8"/>
<path d="M95.1878 33.1294L91.4076 32.0268C80.172 28.7716 67.9388 30.9242 58.5407 37.7496C52.0829 33.0769 43.9974 30.5042 36.1745 30.5042H21.8937V41.0048H36.2795C42.2648 41.0048 48.1977 42.9999 52.9229 46.6226L58.5932 50.9279L64.2636 46.6226C70.1439 42.1599 77.5468 40.2698 84.7922 41.2673V76.1818C75.5517 75.2367 66.2062 77.7044 58.6457 83.2172C51.0853 77.7044 41.6348 75.2367 32.4993 76.1818V52.8705H21.9987V86.4724H95.3453V33.1294H95.1878Z" fill="#58FF9B"/>
<defs>
<radialGradient id="paint0_radial_1431_143" cx="0" cy="0" r="1" gradientUnits="userSpaceOnUse" gradientTransform="translate(117.24 -101.5) rotate(105.042) scale(226.282)">
<stop offset="0.445162" stop-color="#1F7676"/>
<stop offset="1" stop-color="#0A4B4B"/>
</radialGradient>
</defs>
</svg>
