<svg width="32" height="32" viewBox="0 0 32 32" fill="none" xmlns="http://www.w3.org/2000/svg">
<path d="M22.8571 0H9.14286C4.0934 0 0 4.0934 0 9.14286V22.8571C0 27.9066 4.0934 32 9.14286 32H22.8571C27.9066 32 32 27.9066 32 22.8571V9.14286C32 4.0934 27.9066 0 22.8571 0Z" fill="#61A85F"/>
<path d="M23.7257 18.3313C24.5029 18.3313 25.1429 17.6913 25.1429 16.9141V13.3027C25.1429 12.0113 24.3315 10.8342 23.1315 10.377L17.12 8.09132C16.4 7.81703 15.6115 7.81703 14.8915 8.09132L8.66288 10.4685C8.09145 10.6856 7.48573 10.7999 6.86858 10.7999V13.0856C7.76001 13.0856 8.62859 12.9256 9.45145 12.617L14.6057 10.6513L15.7029 10.2285L16 10.1141L16.2972 10.2285L17.3714 10.6399L22.8571 12.7313V16.057H6.85714V18.3427H8.41148V21.6799H6.85714V23.9656H25.1429V21.6799H23.5886V18.3427H23.7257V18.3313ZM10.6972 18.3313H14.8571V21.6685H10.6972V18.3313ZM21.3029 21.6685H17.1429V18.3313H21.3029V21.6685Z" fill="white"/>
</svg>
